<?xml version="1.0" encoding="UTF-8"?>
<svg id="Layer_1" data-name="Layer 1" xmlns="http://www.w3.org/2000/svg" viewBox="0 0 148.16 148.31">
  <defs>
    <style>
      .cls-1 {
        stroke: #231f20;
      }

      .cls-1, .cls-2 {
        fill: none;
        stroke-miterlimit: 10;
        stroke-width: 6px;
      }

      .cls-2 {
        stroke: #8659a5;
      }
    </style>
  </defs>
  <path class="cls-1" d="M3.55,83.05c-.36-2.91-.55-5.88-.55-8.89"/>
  <path class="cls-1" d="M3.55,65.26c-.36,2.91-.55,5.88-.55,8.9"/>
  <line class="cls-1" x1="65.26" y1="3.55" x2="65.26" y2="3.39"/>
  <line class="cls-1" x1="65.26" y1="145.15" x2="65.26" y2="144.76"/>
  <line class="cls-1" x1="83.05" y1="3.55" x2="83.05" y2="3.28"/>
  <path class="cls-2" d="M83.05,145.03v-.27c-2.91.36-5.88.55-8.89.55s-5.99-.19-8.9-.55v-79.5H30.57c.63-3.09,1.58-6.07,2.82-8.89,1.38-3.18,3.13-6.16,5.19-8.9h71.16c-2.54-3.37-5.53-6.37-8.9-8.9-2.74-2.06-5.72-3.8-8.9-5.19-2.82-1.23-5.8-2.18-8.89-2.81-2.87-.58-5.84-.89-8.89-.89s-6.03.31-8.9.89c-3.09.63-6.07,1.58-8.89,2.82-3.18,1.38-6.16,3.13-8.9,5.19-3.37,2.52-6.36,5.52-8.89,8.89-2.06,2.74-3.81,5.72-5.19,8.9-1.24,2.82-2.19,5.8-2.82,8.89-.58,2.87-.89,5.85-.89,8.9s.31,6.02.89,8.89c.63,3.09,1.58,6.07,2.81,8.89,1.39,3.18,3.14,6.16,5.19,8.9,2.53,3.37,5.53,6.36,8.9,8.89,2.74,2.06,5.72,3.81,8.9,5.19,2.82,1.24,5.8,2.19,8.89,2.82v27.02c-3.03-.38-6-.95-8.89-1.69-3.05-.79-6.03-1.77-8.9-2.94-6.46-2.61-12.44-6.14-17.79-10.44-4.08-3.26-7.79-6.98-11.06-11.06-4.3-5.35-7.83-11.33-10.44-17.79-1.17-2.88-2.15-5.85-2.94-8.9-.74-2.9-1.31-5.86-1.69-8.89-.36-2.91-.55-5.88-.55-8.89s.19-5.99.55-8.9c.38-3.03.95-6,1.69-8.89.79-3.05,1.77-6.03,2.94-8.9,2.61-6.46,6.14-12.44,10.44-17.79,3.27-4.08,6.98-7.79,11.06-11.07,5.35-4.29,11.33-7.82,17.79-10.43,2.87-1.17,5.85-2.15,8.9-2.94,2.89-.74,5.86-1.31,8.89-1.69,2.91-.36,5.88-.55,8.9-.55s5.98.19,8.89.55c3.03.38,6,.94,8.89,1.69,3.05.78,6.02,1.77,8.9,2.93,6.46,2.61,12.44,6.15,17.79,10.44,4.08,3.27,7.79,6.99,11.07,11.07,4.29,5.35,7.82,11.33,10.43,17.79,1.17,2.87,2.15,5.85,2.94,8.9.74,2.89,1.31,5.86,1.69,8.89h-61.71v52.48c3.09-.63,6.07-1.58,8.89-2.81,3.18-1.39,6.16-3.13,8.9-5.19,3.37-2.53,6.37-5.53,8.91-8.9h-26.7v-17.79h61.71c-.38,3.03-.94,5.99-1.69,8.89-.78,3.05-1.77,6.02-2.94,8.9-2.61,6.46-6.14,12.44-10.43,17.79-3.28,4.09-6.99,7.8-11.07,11.07-5.35,4.29-11.33,7.82-17.79,10.43-2.88,1.17-5.85,2.15-8.9,2.94-2.89.74-5.86,1.31-8.89,1.69"/>
</svg>