<?xml version="1.0" encoding="UTF-8"?>
<svg id="Layer_1" data-name="Layer 1" xmlns="http://www.w3.org/2000/svg" viewBox="0 0 172.82 148.31">
  <defs>
    <style>
      .cls-1, .cls-2 {
        fill: none;
      }

      .cls-3 {
        fill: #fffcf6;
        stroke: #865aa5;
      }

      .cls-3, .cls-2 {
        stroke-miterlimit: 10;
      }

      .cls-2 {
        stroke: #8659a5;
        stroke-width: 6px;
      }
    </style>
  </defs>
  <path class="cls-2" d="M92.09,145.03v-.27c-2.91.36-5.88.55-8.89.55s-5.99-.19-8.9-.55v-79.5h-34.69c.63-3.09,1.58-6.07,2.82-8.89,1.38-3.18,3.13-6.16,5.19-8.9h71.16c-2.54-3.37-5.53-6.37-8.9-8.9-2.74-2.06-5.72-3.8-8.9-5.19-2.82-1.23-5.8-2.18-8.89-2.81-2.87-.58-5.84-.89-8.89-.89s-6.03.31-8.9.89c-3.09.63-6.07,1.58-8.89,2.82-3.18,1.38-6.16,3.13-8.9,5.19-3.37,2.52-6.36,5.52-8.89,8.89-2.06,2.74-3.81,5.72-5.19,8.9-1.24,2.82-2.19,5.8-2.82,8.89-.58,2.87-.89,5.85-.89,8.9s.31,6.02.89,8.89c.63,3.09,1.58,6.07,2.81,8.89,1.39,3.18,3.14,6.16,5.19,8.9,2.53,3.37,5.53,6.36,8.9,8.89,2.74,2.06,5.72,3.81,8.9,5.19,2.82,1.24,5.8,2.19,8.89,2.82v27.02c-3.03-.38-6-.95-8.89-1.69-3.05-.79-6.03-1.77-8.9-2.94-6.46-2.61-12.44-6.14-17.79-10.44-4.08-3.26-7.79-6.98-11.06-11.06-4.3-5.35-7.83-11.33-10.44-17.79-1.17-2.88-2.15-5.85-2.94-8.9-.74-2.9-1.31-5.86-1.69-8.89-.36-2.91-.55-5.88-.55-8.89s.19-5.99.55-8.9c.38-3.03.95-6,1.69-8.89.79-3.05,1.77-6.03,2.94-8.9,2.61-6.46,6.14-12.44,10.44-17.79,3.27-4.08,6.98-7.79,11.06-11.07,5.35-4.29,11.33-7.82,17.79-10.43,2.87-1.17,5.85-2.15,8.9-2.94,2.89-.74,5.86-1.31,8.89-1.69,2.91-.36,5.88-.55,8.9-.55s5.98.19,8.89.55c3.03.38,6,.94,8.89,1.69,3.05.78,6.02,1.77,8.9,2.93,6.46,2.61,12.44,6.15,17.79,10.44,4.08,3.27,7.79,6.99,11.07,11.07,4.29,5.35,7.82,11.33,10.43,17.79,1.17,2.87,2.15,5.85,2.94,8.9.74,2.89,1.31,5.86,1.69,8.89h-61.71v52.48c3.09-.63,6.07-1.58,8.89-2.81,3.18-1.39,6.16-3.13,8.9-5.19,3.37-2.53,6.37-5.53,8.91-8.9h-26.7v-17.79h61.71c-.38,3.03-.94,5.99-1.69,8.89-.78,3.05-1.77,6.02-2.94,8.9-2.61,6.46-6.14,12.44-10.43,17.79-3.28,4.09-6.99,7.8-11.07,11.07-5.35,4.29-11.33,7.82-17.79,10.43-2.88,1.17-5.85,2.15-8.9,2.94-2.89.74-5.86,1.31-8.89,1.69"/>
  <g>
    <rect class="cls-1" x=".5" y="54.06" width="172.32" height="40.19"/>
    <path class="cls-3" d="M31.13,89.42c-2.03.73-6.03,1.92-10.76,1.92-5.3,0-9.67-1.35-13.1-4.63-3.02-2.91-4.89-7.59-4.89-13.05.05-10.45,7.23-18.1,18.98-18.1,4.06,0,7.23.88,8.74,1.61l-1.09,3.69c-1.87-.83-4.21-1.51-7.75-1.51-8.53,0-14.09,5.3-14.09,14.09s5.36,14.14,13.52,14.14c2.96,0,4.99-.42,6.03-.94v-10.45h-7.12v-3.64h11.54v16.85Z"/>
    <path class="cls-3" d="M44.7,59.78h-10.66v-3.85h25.95v3.85h-10.71v31.2h-4.58v-31.2Z"/>
    <path class="cls-3" d="M82.82,78.19c0,9.31-6.45,13.37-12.53,13.37-6.81,0-12.06-4.99-12.06-12.95,0-8.42,5.51-13.36,12.48-13.36s12.12,5.25,12.12,12.95ZM62.85,78.45c0,5.51,3.17,9.67,7.64,9.67s7.64-4.11,7.64-9.78c0-4.26-2.13-9.67-7.54-9.67s-7.75,4.99-7.75,9.78Z"/>
    <path class="cls-3" d="M110.32,54.06v30.42c0,2.24.05,4.78.21,6.5h-4.11l-.21-4.37h-.1c-1.4,2.81-4.47,4.94-8.58,4.94-6.08,0-10.76-5.15-10.76-12.79-.05-8.37,5.15-13.52,11.28-13.52,3.85,0,6.45,1.82,7.59,3.85h.1v-15.03h4.58ZM105.75,76.06c0-.57-.05-1.35-.21-1.92-.68-2.91-3.17-5.3-6.6-5.3-4.73,0-7.54,4.16-7.54,9.72,0,5.1,2.5,9.31,7.44,9.31,3.07,0,5.88-2.03,6.71-5.46.16-.62.21-1.25.21-1.98v-4.37Z"/>
    <path class="cls-3" d="M140.69,78.19c0,9.31-6.45,13.37-12.53,13.37-6.81,0-12.06-4.99-12.06-12.95,0-8.42,5.51-13.36,12.48-13.36s12.12,5.25,12.12,12.95ZM120.72,78.45c0,5.51,3.17,9.67,7.64,9.67s7.64-4.11,7.64-9.78c0-4.26-2.13-9.67-7.54-9.67s-7.75,4.99-7.75,9.78Z"/>
    <path class="cls-3" d="M145.84,86.3c1.35.88,3.74,1.82,6.03,1.82,3.33,0,4.89-1.66,4.89-3.74,0-2.18-1.3-3.38-4.68-4.63-4.52-1.61-6.66-4.11-6.66-7.12,0-4.06,3.28-7.38,8.68-7.38,2.55,0,4.78.73,6.19,1.56l-1.14,3.33c-.99-.62-2.81-1.46-5.15-1.46-2.7,0-4.21,1.56-4.21,3.43,0,2.08,1.51,3.02,4.78,4.26,4.37,1.66,6.6,3.85,6.6,7.59,0,4.42-3.43,7.54-9.41,7.54-2.76,0-5.3-.68-7.07-1.72l1.14-3.48Z"/>
  </g>
</svg>